:SAMPLES-PER-SECOND 30
:FULLY-SPECIFIED
:DEGREES
420
root  71.2543 35.0895 1.85413 4.9812 -71.2943 2.04572
RightUpLeg  -22.3504 -14.5241 -20.3245
RightLeg  45.2553 -1.92704 -2.40117
RightFoot  -22.906 1.72278 18.4112
RightToes  0.000482159 0.542163 -0.142577
Spine  41.0678 2.82433 -3.91251
Spine1  -4.80767 3.28902 -13.4739
HEad  -48.8131 -17.8766 27.6201
LeftShoulder1  7.6162 -12.1362 -42.2942
LeftArm  -32.2026 30.0205 -21.6342
LeftForeArm  177.531 -77.3504 -139.099
LeftHand  -0.25398 0.0180481 5.50724
RightShoulder  6.31614 10.5816 38.7594
RightArm  -3.23415 -21.419 39.222
RightForeArm  14.3544 66.6918 26.0483
RightHand  -5.93556 14.9486 -33.3767
LeftUpLeg  -29.9201 7.92345 26.7576
LeftLeg  32.1916 8.12643 5.84973
LeftFoot  2.86308 0.906967 -7.55026
LeftToes  1.06246e-005 4.65855e-005 -8.18502e-006
421
root  71.9464 34.1223 3.94207 0.121887 -69.8799 6.85767
RightUpLeg  -22.9028 -9.23379 -26.1545
RightLeg  48.1551 -3.65739 -4.7305
RightFoot  -22.9935 1.71111 18.1846
RightToes  0.000482159 0.542163 -0.142577
Spine  42.038 2.77198 -4.4282
Spine1  -5.21948 2.78378 -12.2444
HEad  -48.8033 -20.2815 28.1629
LeftShoulder1  7.45554 -11.9035 -42.0117
LeftArm  -34.2814 34.3303 -22.5124
LeftForeArm  169.234 -79.2136 -129.772
LeftHand  -0.25398 0.0180481 5.50724
RightShoulder  5.85324 9.97018 37.417
RightArm  -3.0269 -23.4977 37.9264
RightForeArm  20.6796 69.3081 29.7148
RightHand  -5.38906 13.8303 -32.1715
LeftUpLeg  -29.5657 9.68129 25.1048
LeftLeg  34.258 6.16084 4.78438
LeftFoot  0.245042 1.92242 -19.2681
LeftToes  1.06246e-005 4.65855e-005 -8.18502e-006
422
root  72.732 33.1374 5.7718 -5.8924 -66.3659 12.2267
RightUpLeg  -22.9954 -3.90215 -31.5637
RightLeg  53.0971 -6.11013 -9.08158
RightFoot  -22.7878 1.33761 14.8109
RightToes  0.000482159 0.542163 -0.142577
Spine  45.227 3.18148 -5.94311
Spine1  -5.56264 1.80056 -8.54881
HEad  -50.9918 -22.1407 27.7852
LeftShoulder1  7.68733 -12.0019 -43.1013
LeftArm  -34.5942 35.176 -22.2749
LeftForeArm  148.204 -81.2209 -108.163
LeftHand  -0.25398 0.0180481 5.50724
RightShoulder  5.54974 9.4952 36.699
RightArm  -4.614 -24.8097 35.2591
RightForeArm  29.2276 73.4368 39.025
RightHand  -5.31569 13.4405 -32.3654
LeftUpLeg  -33.3659 11.9225 20.1798
LeftLeg  41.7971 1.23036 1.50899
LeftFoot  -5.86505 1.35731 -26.5476
LeftToes  1.06246e-005 4.65855e-005 -8.18502e-006
423
root  73.4353 32.4291 7.25133 -9.28418 -62.419 14.9752
RightUpLeg  -23.1135 -0.00802843 -34.0084
RightLeg  58.1739 -8.80849 -15.3715
RightFoot  -21.8165 0.356726 5.35275
RightToes  0.000482159 0.542163 -0.142577
Spine  49.0302 3.82715 -6.98489
Spine1  -5.05088 1.06589 -4.26913
HEad  -54.778 -22.8256 27.0033
LeftShoulder1  8.39822 -12.691 -45.1907
LeftArm  -34.0237 31.4048 -20.3521
LeftForeArm  102.727 -80.6062 -64.4979
LeftHand  -0.25398 0.0180481 5.50724
RightShoulder  5.69197 9.66467 37.2045
RightArm  -7.55855 -23.6627 32.2111
RightForeArm  39.0143 76.3955 50.8783
RightHand  -5.67173 13.8777 -33.6549
LeftUpLeg  -38.2887 12.1899 15.0577
LeftLeg  49.7742 -2.17932 -2.24891
LeftFoot  -10.6819 0.225131 -25.7946
LeftToes  1.06246e-005 4.65855e-005 -8.18502e-006
424
root  73.9189 32.1589 8.37048 -9.67993 -59.2193 15.6072
RightUpLeg  -23.2308 2.69062 -33.6808
RightLeg  61.0356 -12.2826 -23.0157
RightFoot  -20.3916 -0.708652 -7.18277
RightToes  0.000482159 0.542163 -0.142577
Spine  52.0547 4.14294 -6.97189
Spine1  -4.66732 0.766176 -1.76427
HEad  -57.6724 -22.8802 25.4373
LeftShoulder1  9.1552 -13.7331 -46.34
LeftArm  -33.1396 24.9467 -18.544
LeftForeArm  68.5017 -74.3345 -32.1919
LeftHand  -0.25398 0.0180481 5.50724
RightShoulder  6.05735 10.1876 38.1908
RightArm  -10.1806 -20.1913 30.1561
RightForeArm  42.5021 76.9631 54.3381
RightHand  -6.03609 14.4036 -34.7836
LeftUpLeg  -41.9652 11.2594 11.2828
LeftLeg  54.1911 -2.89841 -3.79233
LeftFoot  -12.8517 -0.228678 -22.5782
LeftToes  1.06246e-005 4.65855e-005 -8.18502e-006
425
root  74.2173 32.1801 9.27977 -8.05249 -57.0756 15.2867
RightUpLeg  -22.9288 5.43429 -32.9112
RightLeg  61.1094 -15.6387 -28.3223
RightFoot  -19.7054 -1.23067 -14.822
RightToes  0.000482159 0.542163 -0.142577
Spine  54.1062 3.99972 -6.24137
Spine1  -5.78025 0.749257 -1.18521
HEad  -60.0842 -22.6131 24.2786
LeftShoulder1  9.57407 -14.6046 -46.1152
LeftArm  -32.1074 18.5538 -17.9336
LeftForeArm  56.6538 -66.6271 -19.7795
LeftHand  -0.25398 0.0180481 5.50724
RightShoulder  6.32216 10.5416 38.9296
RightArm  -11.0215 -15.8712 28.8898
RightForeArm  38.9079 76.1288 49.264
RightHand  -6.19954 14.7282 -35.1218
LeftUpLeg  -44.3648 9.997 8.85129
LeftLeg  55.5906 -2.61861 -3.60025
LeftFoot  -14.0247 -0.418377 -21.1416
LeftToes  1.06246e-005 4.65855e-005 -8.18502e-006
426
root  74.3901 32.3432 10.074 -5.35724 -56.1887 14.5375
RightUpLeg  -22.4699 8.25973 -32.7187
RightLeg  59.2216 -17.5322 -29.0596
RightFoot  -20.2447 -1.30618 -14.98
RightToes  0.000482159 0.542163 -0.142577
Spine  55.5599 3.89612 -5.5171
Spine1  -8.27107 0.850448 -0.894962
HEad  -63.6561 -21.587 24.5656
LeftShoulder1  9.7788 -15.1561 -45.6927
LeftArm  -31.293 13.8257 -17.8666
LeftForeArm  53.9837 -61.7551 -15.6243
LeftHand  -0.25398 0.0180481 5.50724
RightShoulder  6.51302 10.8262 39.3458
RightArm  -10.3508 -12.039 27.6549
RightForeArm  36.0343 75.2591 44.9563
RightHand  -6.10723 14.7645 -34.5739
LeftUpLeg  -46.3242 8.71546 7.4637
LeftLeg  55.9084 -2.23742 -3.04127
LeftFoot  -15.1293 -0.607458 -20.8849
LeftToes  1.06246e-005 4.65855e-005 -8.18502e-006
427
root  74.4184 32.6496 10.7699 -2.3183 -56.5383 13.6505
RightUpLeg  -22.4555 9.57399 -32.6995
RightLeg  56.2046 -18.3745 -27.228
RightFoot  -20.4048 -1.09568 -11.9907
RightToes  0.000482159 0.542163 -0.142577
Spine  56.5367 4.34857 -5.68736
Spine1  -11.0379 1.04808 -0.0763612
HEad  -66.8515 -20.2481 24.8198
LeftShoulder1  9.96148 -15.6326 -45.3761
LeftArm  -31.0582 10.9638 -17.7613
LeftForeArm  52.8591 -60.0749 -14.5919
LeftHand  -0.25398 0.0180481 5.50724
RightShoulder  6.77534 11.3217 39.583
RightArm  -9.33529 -9.22173 26.6214
RightForeArm  36.7432 75.048 43.639
RightHand  -5.6909 14.1404 -33.3345
LeftUpLeg  -47.9282 7.77463 6.85854
LeftLeg  55.6717 -1.67388 -2.1269
LeftFoot  -15.9641 -0.737496 -20.4301
LeftToes  1.06246e-005 4.65855e-005 -8.18502e-006
428
root  74.2807 33.0555 11.3919 0.903931 -57.865 12.273
RightUpLeg  -23.3065 8.05495 -32.1921
RightLeg  53.3679 -19.2507 -25.7673
RightFoot  -17.7568 -0.692756 -10.2466
RightToes  0.000482159 0.542163 -0.142577
Spine  56.9788 5.04719 -6.40041
Spine1  -13.5482 1.34355 0.81007
HEad  -68.5142 -19.0933 24.5193
LeftShoulder1  10.0892 -16.1736 -44.6632
LeftArm  -31.3407 9.24366 -17.6911
LeftForeArm  52.1575 -59.6604 -14.3871
LeftHand  -0.25398 0.0180481 5.50724
RightShoulder  7.05036 11.8347 39.8327
RightArm  -8.55215 -7.63676 26.3321
RightForeArm  38.4114 75.0035 42.8807
RightHand  -5.1962 13.1333 -32.1825
LeftUpLeg  -48.5699 7.57267 7.07333
LeftLeg  54.8709 -0.813993 -0.739099
LeftFoot  -16.584 -0.824814 -19.9892
LeftToes  1.06246e-005 4.65855e-005 -8.18502e-006
429
root  74.0324 33.3953 11.9721 3.94922 -59.7335 10.2352
RightUpLeg  -25.0186 4.2711 -31.3208
RightLeg  52.0071 -19.2955 -24.7191
RightFoot  -12.0324 -0.1428 -9.55028
RightToes  0.000482159 0.542163 -0.142577
Spine  56.8531 5.50725 -7.03663
Spine1  -15.8605 1.53856 1.27648
HEad  -68.7571 -18.6524 23.4301
LeftShoulder1  10.1055 -16.5567 -43.837
LeftArm  -31.8091 7.87656 -17.3987
LeftForeArm  53.4135 -59.4896 -14.1606
LeftHand  -0.25398 0.0180481 5.50724
RightShoulder  7.20505 12.015 40.2713
RightArm  -7.93664 -7.40651 26.7317
RightForeArm  37.5264 74.5472 41.0488
RightHand  -5.00679 12.6357 -31.8824
LeftUpLeg  -48.1441 8.13901 7.85104
LeftLeg  54.3054 -0.0658077 0.406924
LeftFoot  -17.4585 -0.961727 -19.7728
LeftToes  1.06246e-005 4.65855e-005 -8.18502e-006
